<?xml version="1.0" encoding="iso-8859-1"?>
<!-- Generator: Adobe Illustrator 19.0.0, SVG Export Plug-In . SVG Version: 6.00 Build 0)  -->
<svg version="1.1" id="Layer_1" xmlns="http://www.w3.org/2000/svg" xmlns:xlink="http://www.w3.org/1999/xlink" x="0px" y="0px"
	 viewBox="0 0 512 512" style="enable-background:new 0 0 512 512;" xml:space="preserve">
<circle style="fill:#ECE5DD;" cx="256" cy="256" r="256"/>
<path style="fill:#D9CBBD;" d="M256,0c-11.317,0-22.461,0.744-33.391,2.167C348.216,18.53,445.217,125.933,445.217,256
	s-97.002,237.47-222.609,253.833C233.539,511.256,244.683,512,256,512c141.385,0,256-114.616,256-256S397.385,0,256,0z"/>
<circle style="fill:#EE539E;" cx="256" cy="256" r="178.087"/>
<g>
	<path style="fill:#EA358B;" d="M256,77.913c-9.466,0-18.759,0.746-27.826,2.168C313.311,93.441,378.435,167.112,378.435,256
		s-65.124,162.559-150.261,175.919c9.067,1.422,18.36,2.168,27.826,2.168c98.355,0,178.087-79.733,178.087-178.087
		C434.087,157.645,354.355,77.913,256,77.913z"/>
	<path style="fill:#EA358B;" d="M256,69.565C153.199,69.565,69.565,153.199,69.565,256S153.199,442.435,256,442.435
		S442.435,358.801,442.435,256S358.801,69.565,256,69.565z M424.618,236.547c-0.553-0.004-1.11-0.026-1.662-0.026
		c-37.956,0-73.293,11.412-102.778,30.969c-11.229-14.343-23.805-27.777-37.651-40.156c-7.503-6.708-15.274-13.005-23.286-18.891
		c17.352-28.307,27.367-61.575,27.367-97.14c0-7.528-0.462-15.061-1.359-22.514C358.684,101.6,416.046,161.762,424.618,236.547z
		 M256,86.261c4.079,0,8.124,0.154,12.132,0.439c1.177,8.114,1.781,16.363,1.781,24.605c0,32.036-8.924,62.024-24.412,87.618
		C208.183,174.51,166.2,158.674,121.68,152.35C152.752,112.179,201.403,86.261,256,86.261z M111.019,167.811
		c45.84,5.186,88.461,20.856,125.314,44.732c-30.97,41.545-80.475,68.5-136.16,68.5c-4.038,0-8.093-0.158-12.124-0.441
		c-1.171-8.035-1.789-16.248-1.789-24.603C86.261,223.726,95.318,193.529,111.019,167.811z M91.406,297.522
		c2.923,0.136,5.85,0.217,8.767,0.217c61.374,0,115.91-29.816,149.902-75.717c21.352,15.659,40.476,34.208,56.815,55.147
		c-42.855,34.187-70.37,86.832-70.37,145.788c0,0.552,0.02,1.107,0.024,1.661C165.981,416.529,108.437,365.003,91.406,297.522z
		 M253.259,425.705c-0.014-0.917-0.041-1.835-0.041-2.748c0-53.445,24.836-101.191,63.565-132.328
		c20.252,29.303,35.31,62.684,43.824,98.957c-28.847,22.638-65.178,36.153-104.606,36.153
		C255.084,425.739,254.171,425.719,253.259,425.705z M374.709,377.196c-9.203-34.711-24.265-67.15-44.593-96.266
		c26.697-17.51,58.597-27.713,92.84-27.713c0.913,0,1.831,0.028,2.748,0.042c0.014,0.913,0.035,1.824,0.035,2.74
		C425.739,303.428,406.178,346.367,374.709,377.196z"/>
</g>
<g>
</g>
<g>
</g>
<g>
</g>
<g>
</g>
<g>
</g>
<g>
</g>
<g>
</g>
<g>
</g>
<g>
</g>
<g>
</g>
<g>
</g>
<g>
</g>
<g>
</g>
<g>
</g>
<g>
</g>
</svg>
